<svg width="43" height="31" viewBox="0 0 43 31" fill="none" xmlns="http://www.w3.org/2000/svg">
<path d="M19.8148 30.0876C16.7983 30.0876 13.8554 29.552 11.1699 28.4243C1.97325 24.5621 -1.74218 15.6819 2.92974 8.60591C7.52808 1.61449 20.1459 -1.74025 30.998 1.13526C36.2217 2.51663 40.0475 5.27938 41.7029 8.94423C43.4687 12.8064 42.6226 17.317 39.3486 21.2919C34.6767 26.902 27.1354 30.0876 19.8148 30.0876ZM22.7578 3.75702C16.0994 3.75702 9.80886 6.20969 7.12343 10.2692C3.62868 15.5974 6.42445 22.3068 13.4139 25.2105C20.3666 28.1424 30.1887 25.4924 35.2653 19.3186C37.8035 16.2457 38.4657 13.0038 37.1414 10.1283C35.9642 7.53467 33.2052 5.56129 29.3794 4.54641C27.2089 4.01078 24.965 3.75702 22.7578 3.75702Z" fill="#CCCCCC"/>
</svg>
