<svg width="44" height="19" viewBox="0 0 44 19" fill="none" xmlns="http://www.w3.org/2000/svg">
<path d="M0.68821 14.5V1.40909H2.66335V12.7997H8.59517V14.5H0.68821ZM14.4706 14.6982C13.5502 14.6982 12.7469 14.4872 12.0608 14.0653C11.3747 13.6435 10.8421 13.0533 10.4628 12.2947C10.0835 11.5362 9.89391 10.6499 9.89391 9.63565C9.89391 8.61719 10.0835 7.72656 10.4628 6.96378C10.8421 6.20099 11.3747 5.60866 12.0608 5.18679C12.7469 4.76491 13.5502 4.55398 14.4706 4.55398C15.3911 4.55398 16.1943 4.76491 16.8804 5.18679C17.5665 5.60866 18.0992 6.20099 18.4784 6.96378C18.8577 7.72656 19.0473 8.61719 19.0473 9.63565C19.0473 10.6499 18.8577 11.5362 18.4784 12.2947C18.0992 13.0533 17.5665 13.6435 16.8804 14.0653C16.1943 14.4872 15.3911 14.6982 14.4706 14.6982ZM14.477 13.0938C15.0736 13.0938 15.5679 12.9361 15.96 12.6207C16.352 12.3054 16.6418 11.8857 16.8293 11.3615C17.021 10.8374 17.1169 10.2599 17.1169 9.62926C17.1169 9.00284 17.021 8.42756 16.8293 7.90341C16.6418 7.375 16.352 6.95099 15.96 6.63139C15.5679 6.31179 15.0736 6.15199 14.477 6.15199C13.8762 6.15199 13.3776 6.31179 12.9813 6.63139C12.5892 6.95099 12.2973 7.375 12.1056 7.90341C11.9181 8.42756 11.8243 9.00284 11.8243 9.62926C11.8243 10.2599 11.9181 10.8374 12.1056 11.3615C12.2973 11.8857 12.5892 12.3054 12.9813 12.6207C13.3776 12.9361 13.8762 13.0938 14.477 13.0938ZM24.9371 18.3864C24.1573 18.3864 23.4861 18.2841 22.9236 18.0795C22.3654 17.875 21.9094 17.6044 21.5557 17.2678C21.2021 16.9311 20.9378 16.5625 20.7631 16.1619L22.4059 15.4844C22.5209 15.6719 22.6744 15.87 22.8661 16.0788C23.0621 16.2919 23.3263 16.473 23.6587 16.6222C23.9954 16.7713 24.4279 16.8459 24.9563 16.8459C25.6807 16.8459 26.2795 16.669 26.7525 16.3153C27.2255 15.9659 27.462 15.4077 27.462 14.6406V12.7102H27.3405C27.2255 12.919 27.0593 13.1513 26.842 13.407C26.6289 13.6626 26.3349 13.8842 25.9599 14.0717C25.5849 14.2592 25.0969 14.353 24.4961 14.353C23.7205 14.353 23.0217 14.1719 22.3995 13.8097C21.7816 13.4432 21.2915 12.9041 20.9293 12.1925C20.5714 11.4766 20.3924 10.5966 20.3924 9.55256C20.3924 8.50852 20.5692 7.61364 20.9229 6.8679C21.2809 6.12216 21.7709 5.55114 22.3931 5.15483C23.0153 4.75426 23.7205 4.55398 24.5089 4.55398C25.1182 4.55398 25.6104 4.65625 25.9854 4.8608C26.3604 5.06108 26.6523 5.29545 26.8611 5.56392C27.0742 5.83239 27.2383 6.06889 27.3533 6.27344H27.494V4.68182H29.3668V14.7173C29.3668 15.5611 29.1708 16.2536 28.7788 16.7947C28.3867 17.3359 27.8562 17.7365 27.1871 17.9964C26.5224 18.2564 25.7724 18.3864 24.9371 18.3864ZM24.918 12.7678C25.4677 12.7678 25.9322 12.6399 26.3114 12.3842C26.695 12.1243 26.9847 11.7536 27.1807 11.272C27.381 10.7862 27.4812 10.2045 27.4812 9.52699C27.4812 8.86648 27.3832 8.2848 27.1871 7.78196C26.9911 7.27912 26.7035 6.88707 26.3242 6.60582C25.945 6.32031 25.4762 6.17756 24.918 6.17756C24.3427 6.17756 23.8633 6.3267 23.4798 6.625C23.0962 6.91903 22.8065 7.3196 22.6104 7.8267C22.4187 8.33381 22.3228 8.90057 22.3228 9.52699C22.3228 10.1705 22.4208 10.7351 22.6168 11.2209C22.8128 11.7067 23.1026 12.0859 23.4861 12.3587C23.8739 12.6314 24.3512 12.7678 24.918 12.7678ZM31.57 14.5V4.68182H33.4813V14.5H31.57ZM32.5352 3.1669C32.2028 3.1669 31.9173 3.05611 31.6787 2.83452C31.4443 2.60866 31.3271 2.3402 31.3271 2.02912C31.3271 1.71378 31.4443 1.44531 31.6787 1.22372C31.9173 0.997869 32.2028 0.884943 32.5352 0.884943C32.8676 0.884943 33.151 0.997869 33.3854 1.22372C33.624 1.44531 33.7433 1.71378 33.7433 2.02912C33.7433 2.3402 33.624 2.60866 33.3854 2.83452C33.151 3.05611 32.8676 3.1669 32.5352 3.1669ZM37.6037 8.67045V14.5H35.6925V4.68182H37.527V6.27983H37.6484C37.8743 5.75994 38.228 5.34233 38.7095 5.02699C39.1953 4.71165 39.8068 4.55398 40.544 4.55398C41.2131 4.55398 41.799 4.6946 42.3018 4.97585C42.8047 5.25284 43.1946 5.66619 43.4716 6.21591C43.7486 6.76562 43.8871 7.44531 43.8871 8.25497V14.5H41.9758V8.48509C41.9758 7.77344 41.7905 7.21733 41.4197 6.81676C41.049 6.41193 40.5398 6.20952 39.892 6.20952C39.4489 6.20952 39.0547 6.3054 38.7095 6.49716C38.3686 6.68892 38.098 6.97017 37.8977 7.34091C37.7017 7.70739 37.6037 8.15057 37.6037 8.67045Z" fill="#043873"/>
</svg>
